<svg xmlns="http://www.w3.org/2000/svg" viewBox="0 0 1960 380" fill="#0489A0">
  <path d="M15.076 6.151h146.578l56.527 219.467L274.305 6.151h146.489v360.693h-91.28V91.772l-70.333 275.072h-82.623L106.356 91.772v275.072h-91.28V6.151z"/>
  <path d="M512.817 6.151h298.691v77.01H624.52v57.327h173.457v73.565H624.52v71.104h192.401v81.686H512.817V6.151z"/>
  <path d="M899.595 366.844V6.151h185.759c34.445 0 60.771 2.953 78.979 8.857 18.208 5.903 32.885 16.854 44.041 32.846 11.151 15.993 16.729 35.472 16.729 58.434 0 20.015-4.266 37.275-12.801 51.792-8.535 14.518-20.271 26.288-35.203 35.308-9.518 5.743-22.565 10.499-39.143 14.27 13.273 4.438 22.947 8.869 29.014 13.298 4.099 2.956 10.037 9.276 17.826 18.964 7.783 9.688 12.99 17.157 15.611 22.409l53.975 104.518h-125.938l-59.576-110.227c-7.547-14.27-14.27-23.535-20.176-27.802-8.037-5.574-17.142-8.365-27.31-8.365h-9.842v146.394l-111.945-.003zm111.948-214.546h46.992c5.082 0 14.924-1.638 29.525-4.921 7.381-1.477 13.407-5.248 18.084-11.317 4.674-6.066 7.012-13.04 7.012-20.914 0-11.646-3.689-20.583-11.072-26.818-7.381-6.231-21.244-9.35-41.58-9.35h-48.961v73.32z"/>
  <path d="M1537.332 6.151h111.21v214.896c0 21.31-3.321 41.432-9.965 60.36-6.644 18.935-17.062 35.491-31.247 49.669-14.189 14.179-29.074 24.136-44.656 29.871-21.65 8.031-47.65 12.048-77.994 12.048-17.553 0-36.701-1.229-57.449-3.687-20.752-2.464-38.099-7.335-52.037-14.632-13.943-7.292-26.695-17.661-38.26-31.102-11.563-13.439-19.479-27.292-23.742-41.554-6.89-22.947-10.334-43.272-10.334-60.977V6.151h111.209v220.013c0 19.668 5.451 35.034 16.362 46.095 10.906 11.063 26.037 16.592 45.395 16.592 19.19 0 34.237-5.447 45.147-16.347 10.906-10.897 16.361-26.345 16.361-46.34V6.151z"/>
  <path d="M1724.079 247.515l106.043-6.644c2.295 17.224 6.97 30.349 14.024 39.366 11.479 14.601 27.883 21.897 49.207 21.897 15.907 0 28.172-3.729 36.782-11.194 8.611-7.462 12.917-16.116 12.917-25.958 0-9.349-4.102-17.715-12.302-25.096-8.204-7.382-27.229-14.352-57.081-20.914-48.881-10.987-83.738-25.588-104.566-43.795-20.998-18.207-31.492-41.415-31.492-69.63 0-18.533 5.369-36.045 16.114-52.528 10.741-16.485 26.899-29.44 48.47-38.875C1823.764 4.718 1853.33 0 1890.895 0c46.09 0 81.23 8.573 105.428 25.711 24.191 17.143 38.586 44.41 43.18 81.809l-105.059 6.15c-2.791-16.238-8.653-28.048-17.592-35.43-8.941-7.381-21.282-11.072-37.028-11.072-12.96 0-22.722 2.749-29.279 8.242-6.563 5.498-9.841 12.179-9.841 20.052 0 5.744 2.706 10.911 8.119 15.5 5.247 4.76 17.715 9.188 37.396 13.286 48.717 10.499 83.611 21.121 104.689 31.862 21.074 10.745 36.414 24.073 46.01 39.981 9.596 15.911 14.395 33.706 14.395 53.39 0 23.128-6.397 44.453-19.191 63.97-12.794 19.522-30.674 34.323-53.637 44.41-22.967 10.087-51.914 15.131-86.853 15.131-61.349 0-103.828-11.81-127.448-35.43-23.621-23.616-36.991-53.633-40.105-90.047z"/>
</svg>
