<svg xmlns="http://www.w3.org/2000/svg" width="2071.584" height="997.705" viewBox="0 0 2071.584 997.705"><g fill="#0489A0"><path d="M15.076 6.151h146.578l56.527 219.467L274.305 6.151h146.489v360.693h-91.28V91.772l-70.333 275.072h-82.623L106.356 91.772v275.072h-91.28V6.151zM512.817 6.151h298.691v77.01H624.52v57.327h173.457v73.565H624.52v71.104h192.401v81.686H512.817V6.151zM899.595 366.844V6.151h185.759c34.445 0 60.771 2.953 78.979 8.857 18.208 5.903 32.885 16.854 44.041 32.846 11.151 15.993 16.729 35.472 16.729 58.434 0 20.015-4.266 37.275-12.801 51.792-8.535 14.518-20.271 26.288-35.203 35.308-9.518 5.743-22.565 10.499-39.143 14.27 13.273 4.438 22.947 8.869 29.014 13.298 4.099 2.956 10.037 9.276 17.826 18.964 7.783 9.688 12.99 17.157 15.611 22.409l53.975 104.518h-125.938l-59.576-110.227c-7.547-14.27-14.27-23.535-20.176-27.802-8.037-5.574-17.142-8.365-27.31-8.365h-9.842v146.394l-111.945-.003zm111.948-214.546h46.992c5.082 0 14.924-1.638 29.525-4.921 7.381-1.477 13.407-5.248 18.084-11.317 4.674-6.066 7.012-13.04 7.012-20.914 0-11.646-3.689-20.583-11.072-26.818-7.381-6.231-21.244-9.35-41.58-9.35h-48.961v73.32zM1537.332 6.151h111.21v214.896c0 21.31-3.321 41.432-9.965 60.36-6.644 18.935-17.062 35.491-31.247 49.669-14.189 14.179-29.074 24.136-44.656 29.871-21.65 8.031-47.65 12.048-77.994 12.048-17.553 0-36.701-1.229-57.449-3.687-20.752-2.464-38.099-7.335-52.037-14.632-13.943-7.292-26.695-17.661-38.26-31.102-11.563-13.439-19.479-27.292-23.742-41.554-6.89-22.947-10.334-43.272-10.334-60.977V6.151h111.209v220.013c0 19.668 5.451 35.034 16.362 46.095 10.906 11.063 26.037 16.592 45.395 16.592 19.19 0 34.237-5.447 45.147-16.347 10.906-10.897 16.361-26.345 16.361-46.34V6.151zM1724.079 247.515l106.043-6.644c2.295 17.224 6.97 30.349 14.024 39.366 11.479 14.601 27.883 21.897 49.207 21.897 15.907 0 28.172-3.729 36.782-11.194 8.611-7.462 12.917-16.116 12.917-25.958 0-9.349-4.102-17.715-12.302-25.096-8.204-7.382-27.229-14.352-57.081-20.914-48.881-10.987-83.738-25.588-104.566-43.795-20.998-18.207-31.492-41.415-31.492-69.63 0-18.533 5.369-36.045 16.114-52.528 10.741-16.485 26.899-29.44 48.47-38.875C1823.764 4.718 1853.33 0 1890.895 0c46.09 0 81.23 8.573 105.428 25.711 24.191 17.143 38.586 44.41 43.18 81.809l-105.059 6.15c-2.791-16.238-8.653-28.048-17.592-35.43-8.941-7.381-21.282-11.072-37.028-11.072-12.96 0-22.722 2.749-29.279 8.242-6.563 5.498-9.841 12.179-9.841 20.052 0 5.744 2.706 10.911 8.119 15.5 5.247 4.76 17.715 9.188 37.396 13.286 48.717 10.499 83.611 21.121 104.689 31.862 21.074 10.745 36.414 24.073 46.01 39.981 9.596 15.911 14.395 33.706 14.395 53.39 0 23.128-6.397 44.453-19.191 63.97-12.794 19.522-30.674 34.323-53.637 44.41-22.967 10.087-51.914 15.131-86.853 15.131-61.349 0-103.828-11.81-127.448-35.43-23.621-23.616-36.991-53.633-40.105-90.047z"/><g><path d="M15.076 463.667h91.28v53h-91.28zM139.165 533.667l-16.079 63h77.505l16.226-63zM296.646 533.667h-77.111l16.111 63h77.107zM15.076 533.667h91.28v63h-91.28zM259.182 387.146h-82.623l-15.191 59.521H274.4zM274.305 747.839h146.489v-64.172H257.895zM329.514 533.667h91.28v63h-91.28zM329.514 387.146h91.28v59.521h-91.28zM15.076 747.839h146.578l16.529-64.172H15.076zM15.076 387.146h91.28v59.521h-91.28zM292.299 516.667l-13.552-53H157.029l-13.526 53zM196.212 613.667h-77.465l-12.391 48.551v-48.551h-91.28v53h167.485zM329.514 463.667h91.28v53h-91.28zM329.514 613.667v48.551l-12.413-48.551h-77.107l13.553 53h167.247v-53zM512.817 683.667h298.691v64.173H512.817zM624.52 539.936v-6.269H512.817v63h285.16v-56.731zM512.817 387.146h304.104v59.521H512.817zM624.52 516.667v-47.836h192.401v-5.164H512.817v53zM512.817 613.667h111.702v53H512.817zM1220.186 613.667h-117.971a32.59 32.59 0 0 1 3.93 4.265c4.675 6.065 7.013 13.04 7.013 20.914 0 11.645-3.688 20.582-11.072 26.816-.409.347-.847.68-1.296 1.005h122.91c.926-6.035 1.403-12.352 1.403-18.965.001-12.402-1.641-23.744-4.917-34.035zM1056.941 516.667h125.744c.688-.84 1.39-1.697 2.11-2.596 7.783-9.688 12.99-17.157 15.611-22.408l14.458-27.996h-127.78l-18.217 33.705c-4.233 8.008-8.208 14.437-11.926 19.295zM899.595 387.146h111.948v59.521H899.595zM899.595 747.839h185.759c34.445 0 60.771-2.953 78.979-8.857s32.885-16.854 44.041-32.846c4.774-6.85 8.521-14.342 11.252-22.469h-320.03l-.001 64.172zM1254.383 387.146h-125.938l-32.172 59.521h127.372zM1177.1 560.603c-9.518-5.743-22.565-10.499-39.143-14.271 12.643-4.226 22.013-8.448 28.117-12.666H899.595v63h313.134c-.144-.252-.278-.509-.426-.758-8.535-14.515-20.272-26.286-35.203-35.305zM899.595 463.667h111.948v53H899.595zM899.595 613.667h111.948v53H899.595zM1537.332 683.667h111.21v64.173h-111.21zM1537.332 533.667h111.21v63h-111.21zM1302.857 533.667h111.209v63h-111.209zM1607.33 422.915c-14.189-14.179-29.074-24.136-44.656-29.871-21.65-8.031-47.65-12.049-77.994-12.049-17.553 0-36.701 1.229-57.449 3.687-20.752 2.465-38.099 7.336-52.037 14.633-13.943 7.292-26.695 17.661-38.26 31.101-4.604 5.353-8.621 10.771-12.068 16.252h301.346c-5.302-8.546-11.591-16.467-18.882-23.753zM1302.857 683.667h111.209v64.173h-111.209zM1537.332 613.667h111.21v53h-111.21zM1303.757 516.667h110.958c1.73-14.411 6.961-26.063 15.714-34.935 10.906-11.063 26.037-16.592 45.395-16.592 19.19 0 34.237 5.446 45.147 16.347 8.782 8.775 14.023 20.506 15.734 35.18h111.167c-1.272-15.349-4.368-30.045-9.295-44.084a135.716 135.716 0 0 0-3.497-8.916h-318.973a95.085 95.085 0 0 0-2.918 8.302c-4.865 16.209-8.003 31.104-9.432 44.698zM1302.857 613.667h111.209v53h-111.209zM1873.671 535.015c-48.881 10.987-83.737 25.588-104.565 43.795-6.338 5.495-11.713 11.45-16.137 17.856h240.24c19.886-10.531 34.469-23.45 43.709-38.771a98.275 98.275 0 0 0 10.492-24.229h-167.787c-1.935.452-3.916.902-5.952 1.349zM1737.611 648.439c0 6.19.613 12.265 1.813 18.228h102.594c-.873-2.556-1.314-5.268-1.314-8.14 0-5.743 2.706-10.911 8.119-15.501 5.246-4.759 17.715-9.188 37.396-13.285 24.715-5.326 45.865-10.686 63.467-16.073h-205.8c-4.179 10.594-6.275 22.183-6.275 34.771zM1943.054 489.007c0 9.349-4.102 17.715-12.302 25.096a31.28 31.28 0 0 1-3.316 2.564h123.228c.424-3.973.648-8.021.648-12.16 0-14.305-2.454-27.916-7.348-40.84H1930.82c8.148 7.321 12.234 15.767 12.234 25.34zM1879.822 686.821c-8.014 0-14.801-1.054-20.366-3.154h-114.863c2.421 5.888 5.454 11.656 9.134 17.303 10.741 16.484 26.899 29.439 48.471 38.874 21.566 9.43 51.134 14.146 88.697 14.146 46.09 0 81.23-8.572 105.428-25.71 15.281-10.828 26.648-25.702 34.109-44.612h-128.348c-6.458 2.094-13.871 3.153-22.262 3.153zM1830.122 513.118c2.295-17.223 6.97-30.348 14.024-39.365 3.054-3.885 6.467-7.234 10.217-10.086h-120.807c-4.994 13.125-8.16 27.392-9.479 42.81l106.045 6.641zM2039.501 646.471l-105.06-6.151c-1.842 10.715-5.028 19.488-9.545 26.347h110.928c1.578-6.367 2.805-13.098 3.677-20.196zM2032.12 440.536c-12.794-19.521-30.674-34.321-53.638-44.41-22.965-10.088-51.913-15.131-86.852-15.131-61.349 0-103.828 11.81-127.447 35.43-9.125 9.125-16.714 19.208-22.778 30.242h294.47a123.6 123.6 0 0 0-3.755-6.131z"/></g><g><path d="M56.574 809.232v59.083h3.346c16.243 0 25.166-8.261 26.771-24.783h7.738v57.724h-6.797c-.489-7.11-2.737-13.244-6.745-18.404-4.009-5.158-10.998-7.738-20.967-7.738h-3.346v60.757h20.078v6.797H4.497v-6.797h17.777V809.232H4.497v-6.797h117.54l1.15 42.77h-7.32c-4.88-23.981-17.29-35.973-37.228-35.973H56.574zM176.519 800.448v135.84h8.784v6.379h-46.744v-6.379h9.412V808.814h-9.412v-6.379c8.784 0 17.463-.349 26.039-1.046l8.47-.941h3.451zM291.758 858.486v78.011h11.921v6.17h-17.568c-8.784 0-14.483.226-17.098.68-2.614.453-4.549.714-5.804.784v-17.149h-.418c-2.789 5.299-6.99 9.481-12.601 12.549-5.612 3.068-11.696 4.601-18.248 4.601-6.274 0-11.625-1.255-16.052-3.765-4.428-2.51-7.215-5.28-8.366-8.313-1.15-3.032-1.726-7.859-1.726-14.483v-52.6h-11.921v-6.483h40.47v55.737c0 8.506.348 14.117 1.046 16.836.696 2.719 2.683 4.078 5.96 4.078 3.415 0 7.25-1.498 11.503-4.496 4.251-2.997 7.041-6.414 8.366-10.249 1.323-3.833 1.987-9.202 1.987-16.104v-39.319h-13.908v-6.483h42.457zm-75.502-34.928c0-3.694 1.307-6.865 3.921-9.516 2.614-2.648 5.804-3.974 9.568-3.974 3.694 0 6.866 1.325 9.516 3.974 2.648 2.65 3.974 5.821 3.974 9.516 0 3.765-1.325 6.954-3.974 9.568-2.65 2.614-5.822 3.922-9.516 3.922-3.765 0-6.954-1.308-9.568-3.922s-3.921-5.803-3.921-9.568zm38.692.209c0-3.765 1.323-6.988 3.974-9.673 2.648-2.683 5.82-4.025 9.516-4.025 3.694 0 6.866 1.343 9.516 4.025 2.648 2.685 3.974 5.908 3.974 9.673 0 3.696-1.325 6.834-3.974 9.412-2.65 2.58-5.822 3.869-9.516 3.869-3.626 0-6.781-1.289-9.464-3.869-2.684-2.578-4.026-5.715-4.026-9.412zM375.834 855.872v26.038h-6.379c-3.905-13.105-12.339-19.659-25.307-19.659-4.88 0-9.098 1.175-12.653 3.521-3.555 2.347-5.333 5.201-5.333 8.563 0 2.873 1.374 5.079 4.123 6.619 2.748 1.543 9.772 2.859 21.071 3.951s19.284 4.082 23.955 8.967c4.67 4.886 7.006 11.134 7.006 18.742 0 9.563-2.946 17.397-8.836 23.506-5.892 6.107-13.856 9.161-23.895 9.161-9.9 0-18.057-2.928-24.47-8.784l-6.588 5.333h-4.811v-30.64h6.274c4.531 18.127 14.465 27.189 29.803 27.189 5.506 0 10.265-1.293 14.274-3.881 4.008-2.588 6.013-5.874 6.013-9.861 0-2.797-1.063-5.069-3.188-6.818-2.125-1.748-7.179-3.073-15.163-3.977-7.984-.904-14.554-2.138-19.714-3.701-5.16-1.563-9.377-4.42-12.653-8.573-3.277-4.152-4.915-9.683-4.915-16.593 0-7.956 2.787-14.795 8.366-20.52 5.577-5.722 13.281-8.584 23.11-8.584 6.971 0 13.663 1.986 20.078 5.96l4.915-5.96h4.917zM456.146 855.872v26.038h-6.379c-3.905-13.105-12.339-19.659-25.307-19.659-4.88 0-9.098 1.175-12.653 3.521-3.555 2.347-5.333 5.201-5.333 8.563 0 2.873 1.374 5.079 4.123 6.619 2.748 1.543 9.772 2.859 21.071 3.951s19.284 4.082 23.955 8.967c4.67 4.886 7.006 11.134 7.006 18.742 0 9.563-2.946 17.397-8.836 23.506-5.892 6.107-13.856 9.161-23.895 9.161-9.9 0-18.057-2.928-24.47-8.784l-6.588 5.333h-4.811v-30.64h6.274c4.531 18.127 14.465 27.189 29.803 27.189 5.506 0 10.265-1.293 14.274-3.881 4.008-2.588 6.013-5.874 6.013-9.861 0-2.797-1.063-5.069-3.188-6.818-2.125-1.748-7.179-3.073-15.163-3.977-7.984-.904-14.554-2.138-19.714-3.701-5.16-1.563-9.377-4.42-12.653-8.573-3.277-4.152-4.915-9.683-4.915-16.593 0-7.956 2.787-14.795 8.366-20.52 5.577-5.722 13.281-8.584 23.11-8.584 6.971 0 13.663 1.986 20.078 5.96l4.915-5.96h4.917zM511.674 855.872v80.416h8.157v6.379h-46.744v-6.379h10.039V864.97h-10.039v-6.483h13.281c6.902 0 12.688-.435 17.359-1.308 4.669-.872 7.319-1.307 7.947-1.307zm-30.431-35.659c0-4.252 1.48-7.859 4.444-10.823 2.962-2.963 6.536-4.444 10.719-4.444 4.251 0 7.896 1.499 10.928 4.496 3.033 2.998 4.549 6.588 4.549 10.771 0 4.183-1.517 7.79-4.549 10.823-3.032 3.032-6.676 4.549-10.928 4.549-4.183 0-7.756-1.517-10.719-4.549-2.963-3.033-4.444-6.641-4.444-10.823zM608.508 868.839c4.113 4.751 6.17 10.272 6.17 16.56 0 9.014-3.817 16.35-11.451 22.01s-16.227 8.488-25.777 8.488c-2.58 0-5.438-.173-8.575-.522a81.447 81.447 0 0 0-8.993-.523c-5.997 0-10.65 1.063-13.96 3.189-3.312 2.128-4.967 4.549-4.967 7.268 0 3.556 3.067 5.334 9.202 5.334 4.322 0 10.458-.383 18.405-1.15 7.948-.767 16.836-1.15 26.666-1.15 18.962 0 28.444 8.993 28.444 26.979 0 13.315-4.862 23.702-14.588 31.163-9.725 7.458-22.292 11.188-37.698 11.188-12.41 0-22.362-2.195-29.855-6.588-7.495-4.392-11.242-10.109-11.242-17.149 0-5.438 4.706-11.713 14.117-18.823-8.715-2.859-13.071-9.587-13.071-20.183 0-12.549 6.936-20.601 20.81-24.156-10.737-6.356-16.104-14.668-16.104-24.936 0-7.753 3.451-14.687 10.353-20.797 6.902-6.111 16.662-9.168 29.281-9.168 11.851 0 21.715 3.207 29.594 9.62 2.997-8.156 7.425-12.234 13.281-12.234 5.995 0 8.993 3.416 8.993 10.248 0 5.996-2.162 8.993-6.483 8.993-1.813 0-3.451-.958-4.915-2.876-1.464-1.917-2.894-2.876-4.287-2.876-1.049-.001-2.166.697-3.35 2.091zm-58.561 87.318c-2.371 5.229-3.556 9.516-3.556 12.862 0 7.459 2.806 13.071 8.418 16.836 5.611 3.765 12.915 5.646 21.908 5.646 11.503 0 20.669-2.807 27.503-8.418 6.831-5.612 10.248-11.869 10.248-18.771 0-6.274-4.01-9.411-12.026-9.411l-43.92 2.091c-1.534.001-4.392-.278-8.575-.835zm25.725-45.594c5.019 0 8.104-1.815 9.254-5.449 1.15-3.633 1.726-10.479 1.726-20.539 0-9.291-.611-15.578-1.83-18.862-1.221-3.284-4.48-4.926-9.777-4.926-4.253 0-7.164 1.398-8.732 4.192-1.569 2.794-2.353 10.199-2.353 22.215 0 10.689 1.028 17.258 3.085 19.702 2.056 2.445 4.931 3.667 8.627 3.667zM674.702 800.448v97.321l22.293-21.47c.139-.21 1.273-1.448 3.402-3.718 2.127-2.268 3.193-3.753 3.193-4.456 0-2.104-2.48-3.156-7.439-3.156h-5.867v-6.483h44.339v6.483h-3.137c-5.16 0-9.307.488-12.444 1.464-3.137.978-6.797 3.556-10.98 7.738l-10.248 10.248 37.646 51.868h8.366v6.379h-53.541v-6.379h11.192l-26.355-37.38h-.418v37.38h9.621v6.379h-49.881v-6.379h12.026V808.814h-12.026v-6.379h9.621l25.097-1.987h5.54zM827.588 895.609h-51.45v13.629c0 10.692.958 18.084 2.875 22.173 1.917 4.088 6.327 6.132 13.229 6.132 6.065 0 11.729-1.951 16.993-5.856 5.263-3.903 9.289-9.969 12.078-18.195h6.274c-2.58 10.598-7.356 18.545-14.327 23.843-6.972 5.299-15.338 7.947-25.097 7.947-13.317 0-23.965-4.571-31.947-13.715-7.983-9.144-11.974-19.683-11.974-31.617 0-11.447 4.042-21.655 12.131-30.624 8.086-8.969 18.195-13.453 30.326-13.453 10.458 0 19.555 3.277 27.293 9.829 7.739 6.553 12.271 16.521 13.596 29.907zm-51.45-6.797h22.483v-8.784c0-7.599-1.029-12.531-3.085-14.797-2.057-2.265-4.862-3.399-8.418-3.399-3.346 0-6.013 1.012-8 3.033-1.987 2.022-2.98 7.146-2.98 15.372v8.575zM874.227 855.872v80.416h8.157v6.379H835.64v-6.379h10.039V864.97H835.64v-6.483h13.281c6.902 0 12.688-.435 17.359-1.308 4.669-.872 7.32-1.307 7.947-1.307zm-30.431-35.659c0-4.252 1.48-7.859 4.444-10.823 2.962-2.963 6.536-4.444 10.719-4.444 4.251 0 7.896 1.499 10.928 4.496 3.033 2.998 4.549 6.588 4.549 10.771 0 4.183-1.517 7.79-4.549 10.823-3.032 3.032-6.676 4.549-10.928 4.549-4.183 0-7.756-1.517-10.719-4.549-2.963-3.033-4.444-6.641-4.444-10.823zM931.219 832.343v26.144h21.124v6.483h-21.124v57.097c0 7.6 2.334 11.398 7.006 11.398 4.251 0 7.459-3.799 9.621-11.398h6.483c-1.255 7.947-4.044 13.612-8.366 16.993-4.324 3.382-11.26 5.071-20.81 5.071-6.833 0-11.869-1.081-15.111-3.241s-5.247-4.706-6.013-7.634c-.768-2.929-1.15-6.657-1.15-11.189V864.97h-11.712v-6.483h11.712v-21.229l28.34-4.915zM1026.275 855.872v26.038h-6.379c-3.905-13.105-12.339-19.659-25.307-19.659-4.88 0-9.098 1.175-12.653 3.521-3.555 2.347-5.333 5.201-5.333 8.563 0 2.873 1.374 5.079 4.123 6.619 2.748 1.543 9.772 2.859 21.071 3.951s19.284 4.082 23.955 8.967c4.67 4.886 7.006 11.134 7.006 18.742 0 9.563-2.946 17.397-8.836 23.506-5.892 6.107-13.856 9.161-23.895 9.161-9.9 0-18.057-2.928-24.47-8.784l-6.588 5.333h-4.811v-30.64h6.274c4.531 18.127 14.465 27.189 29.803 27.189 5.506 0 10.265-1.293 14.274-3.881 4.008-2.588 6.013-5.874 6.013-9.861 0-2.797-1.063-5.069-3.188-6.818-2.125-1.748-7.179-3.073-15.163-3.977-7.984-.904-14.554-2.138-19.714-3.701-5.16-1.563-9.377-4.42-12.653-8.573-3.277-4.152-4.915-9.683-4.915-16.593 0-7.956 2.787-14.795 8.366-20.52 5.577-5.722 13.281-8.584 23.11-8.584 6.971 0 13.663 1.986 20.078 5.96l4.915-5.96h4.917zM1080.967 800.448v67.136h.419c4.949-7.807 12.164-11.712 21.646-11.712 8.852 0 16.766 4.03 23.737 12.093 6.97 8.062 10.457 18.583 10.457 31.564 0 12.913-3.521 23.768-10.562 32.562-7.043 8.794-15.095 13.19-24.156 13.19-9.203 0-16.244-4.287-21.123-12.862h-.419v11.503h-3.032c-6.275-.837-13.908-1.255-22.902-1.255h-13.908v-6.379h11.295V808.814h-11.295v-6.379h13.699c3.834 0 8.854-.349 15.059-1.046l8.053-.941h3.032zm0 90.494v21.469c0 8.937 1.568 15.428 4.706 19.477 3.137 4.049 6.622 6.073 10.457 6.073 3.346 0 5.646-1.745 6.902-5.235 1.254-3.489 1.882-10.681 1.882-21.572v-23.142c0-12.427-.716-19.896-2.144-22.41-1.43-2.513-3.574-3.77-6.432-3.77-3.277 0-6.658 2.497-10.144 7.488-3.486 4.992-5.227 12.199-5.227 21.622zM1231.552 895.609h-51.449v13.629c0 10.692.957 18.084 2.875 22.173 1.916 4.088 6.326 6.132 13.229 6.132 6.065 0 11.729-1.951 16.993-5.856 5.263-3.903 9.289-9.969 12.078-18.195h6.274c-2.58 10.598-7.355 18.545-14.326 23.843-6.973 5.299-15.338 7.947-25.098 7.947-13.316 0-23.965-4.571-31.947-13.715-7.983-9.144-11.974-19.683-11.974-31.617 0-11.447 4.042-21.655 12.131-30.624 8.086-8.969 18.195-13.453 30.325-13.453 10.458 0 19.556 3.277 27.294 9.829 7.738 6.553 12.27 16.521 13.595 29.907zm-51.449-6.797h22.482v-8.784c0-7.599-1.029-12.531-3.085-14.797-2.058-2.265-4.862-3.399-8.418-3.399-3.347 0-6.013 1.012-8 3.033-1.987 2.022-2.979 7.146-2.979 15.372v8.575zM1278.19 800.448v75.501h.419c6.483-13.385 16.557-20.077 30.222-20.077 5.994 0 12.025 1.885 18.091 5.654s9.098 11.1 9.098 21.988v52.773h11.921v6.379h-52.391v-6.379h11.922v-58.856c0-8.098-2.686-12.148-8.053-12.148-6.414 0-11.555 3.226-15.424 9.673-3.869 6.449-5.805 10.65-5.805 12.602v48.73h12.235v6.379h-53.019v-6.379h12.235V808.814h-13.071v-6.379h11.532c6.08 0 12.614-.349 19.604-1.046l7.232-.941h3.252zM1409.22 894.563V875.74c0-5.088-.627-8.68-1.882-10.771-1.255-2.092-4.462-3.138-9.62-3.138-4.115 0-7.32.611-9.621 1.83-2.301 1.221-3.451 2.458-3.451 3.713 0 .836.818 2.091 2.457 3.765 1.638 1.673 2.458 3.765 2.458 6.274 0 3.625-1.359 6.744-4.079 9.358-2.719 2.615-6.135 3.922-10.248 3.922-3.764 0-7.006-1.237-9.725-3.712s-4.078-5.49-4.078-9.046c0-6.134 3.642-11.346 10.928-15.634 7.284-4.287 17.375-6.431 30.273-6.431 9.969 0 18.316 1.256 25.045 3.77 6.728 2.513 10.092 8.168 10.092 16.963v44.19c0 7.611 2.126 11.415 6.379 11.415 1.185 0 2.823-.662 4.915-1.987l2.823 4.706c-5.927 6.901-12.794 10.353-20.601 10.353-8.157 0-14.99-4.217-20.497-12.653-9.133 8.437-19.277 12.653-30.43 12.653-7.529 0-13.456-1.974-17.777-5.92-4.324-3.947-6.484-8.854-6.484-14.724 0-18.65 17.707-28.674 53.123-30.073zm0 19.18v-13.638c-9.411.351-15.965 1.837-19.659 4.46-3.696 2.622-5.542 7.011-5.542 13.164 0 4.757 1.15 8.498 3.45 11.226 2.301 2.729 5.263 4.091 8.889 4.091 4.112 0 7.284-1.362 9.517-4.091 2.229-2.728 3.345-7.798 3.345-15.212zM1499.258 855.872v17.777h.418c7.389-11.852 17.741-17.777 31.058-17.777 5.925 0 11.119 1.256 15.582 3.77 4.46 2.513 7.302 5.078 8.522 7.695 1.219 2.618 1.83 6.58 1.83 11.886v57.065h11.921v6.379h-52.6v-6.379h12.13V877.64c0-5.306-.716-8.761-2.144-10.367-1.43-1.604-3.435-2.408-6.013-2.408-3.487 0-7.809 2.195-12.967 6.588-5.16 4.392-7.738 12.105-7.738 23.14v41.695h12.234v6.379h-53.019v-6.379h12.235V864.97h-12.025v-6.483h7.653c6.918 0 13.768-.435 20.548-1.308l9.332-1.307h3.043zM1660.717 800.448v136.049h11.503v6.17h-13.105c-4.265 0-8.248.104-11.952.313l-11.952.941h-2.937v-12.653h-.418c-4.463 9.343-11.398 14.013-20.811 14.013-9.134 0-17.134-4.413-23.999-13.243-6.867-8.83-10.301-19.734-10.301-32.718 0-12.493 3.485-22.857 10.457-31.095 6.971-8.234 15.059-12.354 24.262-12.354 7.807 0 14.744 3.555 20.81 10.666v-57.724h-16.94v-6.379h14.953c3.415 0 9.133-.33 17.15-.994 8.015-.66 12.444-.992 13.28-.992zm-28.444 109.657v-22.513c0-8.725-1.621-15.2-4.862-19.424-3.242-4.224-6.572-6.337-9.987-6.337-2.65 0-4.705 1.502-6.17 4.504-1.464 3.003-2.195 9.076-2.195 18.22v31.519c0 8.728.539 14.592 1.62 17.593 1.08 3.003 3.05 4.503 5.909 4.503 2.996 0 6.36-1.954 10.091-5.864 3.728-3.909 5.594-11.308 5.594-22.201zM1719.905 800.448v135.84h8.784v6.379h-46.744v-6.379h9.412V808.814h-9.412v-6.379a321.3 321.3 0 0 0 26.039-1.046l8.471-.941h3.45zM1835.145 858.486v78.011h11.922v6.17h-17.568c-8.784 0-14.483.226-17.098.68-2.614.453-4.549.714-5.804.784v-17.149h-.419c-2.789 5.299-6.989 9.481-12.601 12.549-5.612 3.068-11.695 4.601-18.248 4.601-6.274 0-11.625-1.255-16.052-3.765-4.428-2.51-7.216-5.28-8.366-8.313-1.149-3.032-1.725-7.859-1.725-14.483v-52.6h-11.922v-6.483h40.47v55.737c0 8.506.348 14.117 1.046 16.836.696 2.719 2.683 4.078 5.961 4.078 3.415 0 7.249-1.498 11.503-4.496 4.251-2.997 7.04-6.414 8.365-10.249 1.324-3.833 1.987-9.202 1.987-16.104v-39.319h-13.908v-6.483h42.457zM1894.438 855.872v17.777h.418c7.389-11.852 17.741-17.777 31.058-17.777 5.925 0 11.119 1.256 15.582 3.77 4.46 2.513 7.302 5.078 8.522 7.695 1.219 2.618 1.83 6.58 1.83 11.886v57.065h11.921v6.379h-52.6v-6.379h12.13V877.64c0-5.306-.716-8.761-2.144-10.367-1.43-1.604-3.435-2.408-6.013-2.408-3.487 0-7.809 2.195-12.967 6.588-5.16 4.392-7.738 12.105-7.738 23.14v41.695h12.234v6.379h-53.019v-6.379h12.235V864.97h-12.025v-6.483h7.653c6.918 0 13.768-.435 20.548-1.308l9.332-1.307h3.043zM2049.309 868.839c4.112 4.751 6.17 10.272 6.17 16.56 0 9.014-3.817 16.35-11.451 22.01s-16.227 8.488-25.776 8.488c-2.58 0-5.438-.173-8.575-.522a81.461 81.461 0 0 0-8.993-.523c-5.997 0-10.65 1.063-13.961 3.189-3.312 2.128-4.967 4.549-4.967 7.268 0 3.556 3.066 5.334 9.202 5.334 4.322 0 10.457-.383 18.405-1.15 7.947-.767 16.836-1.15 26.666-1.15 18.962 0 28.443 8.993 28.443 26.979 0 13.315-4.862 23.702-14.588 31.163-9.726 7.458-22.292 11.188-37.698 11.188-12.41 0-22.362-2.195-29.855-6.588-7.495-4.392-11.241-10.109-11.241-17.149 0-5.438 4.705-11.713 14.117-18.823-8.716-2.859-13.072-9.587-13.072-20.183 0-12.549 6.937-20.601 20.811-24.156-10.737-6.356-16.104-14.668-16.104-24.936 0-7.753 3.451-14.687 10.353-20.797 6.902-6.111 16.661-9.168 29.28-9.168 11.852 0 21.716 3.207 29.595 9.62 2.996-8.156 7.424-12.234 13.28-12.234 5.995 0 8.993 3.416 8.993 10.248 0 5.996-2.161 8.993-6.483 8.993-1.813 0-3.451-.958-4.915-2.876-1.464-1.917-2.894-2.876-4.287-2.876-1.049-.001-2.165.697-3.349 2.091zm-58.561 87.318c-2.371 5.229-3.556 9.516-3.556 12.862 0 7.459 2.806 13.071 8.418 16.836 5.611 3.765 12.915 5.646 21.908 5.646 11.503 0 20.67-2.807 27.503-8.418 6.831-5.612 10.248-11.869 10.248-18.771 0-6.274-4.01-9.411-12.026-9.411l-43.92 2.091c-1.534.001-4.392-.278-8.575-.835zm25.725-45.594c5.02 0 8.104-1.815 9.255-5.449 1.15-3.633 1.726-10.479 1.726-20.539 0-9.291-.611-15.578-1.83-18.862-1.221-3.284-4.48-4.926-9.777-4.926-4.253 0-7.163 1.398-8.732 4.192-1.568 2.794-2.353 10.199-2.353 22.215 0 10.689 1.027 17.258 3.085 19.702 2.054 2.445 4.93 3.667 8.626 3.667z"/></g></g></svg>