<?xml version="1.0" encoding="UTF-8"?>
<svg id="Layer_1" xmlns="http://www.w3.org/2000/svg" version="1.1" viewBox="0 0 2071.58 997.71">
  <!-- Generator: Adobe Illustrator 30.0.0, SVG Export Plug-In . SVG Version: 2.1.1 Build 123)  -->
  <defs>
    <style>
      .st0 {
        fill: #123f82;
      }
    </style>
  </defs>
  <path class="st0" d="M125.72,149.51h131.02l50.53,196.18,50.17-196.18h130.94v322.41h-81.59v-245.88l-62.87,245.88h-73.85l-62.75-245.88v245.88h-81.59s0-322.41,0-322.41ZM570.64,149.51h266.99v68.84h-167.14v51.24h155.05v65.76h-155.05v63.56h171.98v73.02h-271.83V149.51ZM916.37,471.92V149.51h166.04c30.79,0,54.32,2.64,70.6,7.92,16.28,5.28,29.39,15.07,39.37,29.36,9.97,14.3,14.95,31.71,14.95,52.23,0,17.89-3.81,33.32-11.44,46.3-7.63,12.98-18.12,23.5-31.47,31.56-8.51,5.13-20.17,9.38-34.99,12.76,11.86,3.97,20.51,7.93,25.93,11.89,3.66,2.64,8.97,8.29,15.93,16.95,6.96,8.66,11.61,15.34,13.95,20.03l48.25,93.43h-112.57l-53.25-98.53c-6.75-12.76-12.76-21.04-18.03-24.85-7.18-4.98-15.32-7.48-24.41-7.48h-8.8v130.86h-100.06s0,0,0,0ZM1016.44,280.14h42c4.54,0,13.34-1.46,26.39-4.4,6.6-1.32,11.98-4.69,16.16-10.12,4.18-5.42,6.27-11.66,6.27-18.69,0-10.41-3.3-18.4-9.9-23.97-6.6-5.57-18.99-8.36-37.17-8.36h-43.76v65.54h0ZM1486.43,149.51h99.41v192.09c0,19.05-2.97,37.03-8.91,53.95-5.94,16.93-15.25,31.72-27.93,44.4-12.68,12.67-25.99,21.57-39.92,26.7-19.35,7.18-42.59,10.77-69.72,10.77-15.69,0-32.81-1.1-51.35-3.3-18.55-2.2-34.06-6.56-46.51-13.08-12.46-6.52-23.86-15.79-34.2-27.8-10.34-12.01-17.41-24.4-21.22-37.14-6.16-20.51-9.24-38.68-9.24-54.51v-192.09h99.41v196.66c0,17.58,4.87,31.32,14.63,41.2,9.75,9.89,23.27,14.83,40.58,14.83s30.6-4.87,40.36-14.61c9.75-9.74,14.62-23.55,14.62-41.42v-196.66h0ZM1653.35,365.26l94.79-5.94c2.05,15.4,6.23,27.13,12.54,35.19,10.26,13.05,24.92,19.57,43.98,19.57,14.22,0,25.18-3.33,32.88-10.01,7.7-6.67,11.55-14.41,11.55-23.2s-3.67-15.83-11-22.43c-7.33-6.6-24.34-12.83-51.02-18.69-43.69-9.82-74.85-22.87-93.47-39.15-18.77-16.27-28.15-37.02-28.15-62.24,0-16.57,4.8-32.22,14.4-46.95,9.6-14.74,24.04-26.32,43.33-34.75,19.28-8.43,45.71-12.64,79.29-12.64,41.2,0,72.61,7.66,94.24,22.98,21.62,15.32,34.49,39.7,38.6,73.13l-93.91,5.5c-2.49-14.51-7.73-25.07-15.73-31.67-7.99-6.6-19.02-9.9-33.1-9.9-11.58,0-20.31,2.46-26.17,7.37-5.87,4.91-8.8,10.89-8.8,17.92,0,5.13,2.42,9.75,7.26,13.86,4.69,4.25,15.83,8.21,33.43,11.88,43.55,9.38,74.74,18.88,93.58,28.48,18.84,9.6,32.55,21.52,41.13,35.74,8.58,14.22,12.87,30.13,12.87,47.72,0,20.67-5.72,39.74-17.15,57.18-11.44,17.45-27.42,30.68-47.94,39.7-20.53,9.02-46.4,13.53-77.64,13.53-54.84,0-92.81-10.56-113.92-31.67-21.11-21.11-33.07-47.94-35.85-80.49h0Z"/>
  <path class="st0" d="M125.72,558.47h81.59v47.38h-81.59v-47.38ZM236.64,621.04l-14.37,56.31h69.28l14.5-56.31h-69.41ZM377.41,621.04h-68.93l14.4,56.31h68.92l-14.4-56.31ZM125.72,621.04h81.59v56.31h-81.59v-56.31ZM343.92,490.07h-73.85l-13.58,53.2h101.04l-13.6-53.2ZM357.44,812.48h130.94v-57.36h-145.61l14.67,57.36ZM406.79,621.04h81.59v56.31h-81.59v-56.31ZM406.79,490.07h81.59v53.2h-81.59v-53.2ZM125.72,812.48h131.02l14.77-57.36H125.72v57.36ZM125.72,490.07h81.59v53.2h-81.59v-53.2ZM373.53,605.84l-12.11-47.38h-108.8l-12.09,47.38h133ZM287.64,692.55h-69.24l-11.08,43.4v-43.4h-81.59v47.38h149.71l12.2-47.38ZM406.79,558.47h81.59v47.38h-81.59v-47.38ZM406.79,692.55v43.4l-11.1-43.4h-68.92l12.11,47.38h149.5v-47.38h-81.59ZM570.64,755.12h266.99v57.36h-266.99v-57.36ZM670.49,626.64v-5.6h-99.85v56.31h254.9v-50.71h-155.05ZM570.64,490.07h271.83v53.2h-271.83v-53.2ZM670.49,605.84v-42.76h171.98v-4.62h-271.83v47.38h99.85ZM570.64,692.55h99.85v47.38h-99.85v-47.38ZM1202.94,692.55h-105.45c1.28,1.16,2.46,2.44,3.51,3.81,4.18,5.42,6.27,11.66,6.27,18.69,0,10.41-3.3,18.4-9.9,23.97-.37.31-.76.61-1.16.9h109.87c.83-5.39,1.25-11.04,1.25-16.95,0-11.09-1.47-21.22-4.4-30.42ZM1057.02,605.84h112.4c.61-.75,1.24-1.52,1.89-2.32,6.96-8.66,11.61-15.34,13.95-20.03l12.92-25.02h-114.22l-16.28,30.13c-3.78,7.16-7.34,12.9-10.66,17.25h0ZM916.37,490.07h100.07v53.2h-100.07v-53.2ZM916.37,812.48h166.04c30.79,0,54.32-2.64,70.6-7.92,16.28-5.28,29.39-15.07,39.37-29.36,4.27-6.12,7.62-12.82,10.06-20.08h-286.07v57.36ZM1233.51,490.07h-112.57l-28.76,53.2h113.85l27.48-53.2ZM1164.42,645.12c-8.51-5.13-20.17-9.38-34.99-12.76,11.3-3.78,19.68-7.55,25.13-11.32h-238.2v56.31h279.9c-.13-.23-.25-.45-.38-.68-7.63-12.97-18.12-23.5-31.47-31.56ZM916.37,558.47h100.07v47.38h-100.07v-47.38ZM916.37,692.55h100.07v47.38h-100.07v-47.38ZM1486.43,755.12h99.41v57.36h-99.41v-57.36ZM1486.43,621.04h99.41v56.31h-99.41v-56.31ZM1276.84,621.04h99.41v56.31h-99.41v-56.31ZM1549,522.04c-12.68-12.67-25.99-21.57-39.92-26.7-19.35-7.18-42.59-10.77-69.72-10.77-15.69,0-32.81,1.1-51.35,3.3-18.55,2.2-34.06,6.56-46.51,13.08-12.46,6.52-23.86,15.79-34.2,27.8-4.12,4.78-7.71,9.63-10.79,14.53h269.36c-4.74-7.64-10.36-14.72-16.88-21.23h0ZM1276.84,755.12h99.41v57.36h-99.41v-57.36ZM1486.43,692.55h99.41v47.38h-99.41v-47.38ZM1277.64,605.84h99.18c1.55-12.88,6.22-23.3,14.05-31.23,9.75-9.89,23.27-14.83,40.58-14.83s30.6,4.87,40.36,14.61c7.85,7.84,12.53,18.33,14.06,31.45h99.37c-1.14-13.72-3.9-26.86-8.31-39.41-.95-2.69-1.99-5.35-3.13-7.97h-285.12c-.98,2.43-1.85,4.91-2.61,7.42-4.35,14.49-7.15,27.8-8.43,39.95ZM1276.84,692.55h99.41v47.38h-99.41v-47.38ZM1787.07,622.24c-43.69,9.82-74.85,22.87-93.47,39.15-5.67,4.91-10.47,10.23-14.42,15.96h214.74c17.78-9.41,30.81-20.96,39.07-34.66,4.09-6.76,7.24-14.05,9.38-21.66h-149.98c-1.73.4-3.5.81-5.32,1.21h0ZM1665.45,723.63c0,5.53.55,10.96,1.62,16.29h91.71c-.78-2.28-1.17-4.71-1.17-7.28,0-5.13,2.42-9.75,7.26-13.86,4.69-4.25,15.83-8.21,33.43-11.88,22.09-4.76,41-9.55,56.73-14.37h-183.96c-3.74,9.47-5.61,19.83-5.61,31.08h0ZM1849.09,581.12c0,8.36-3.67,15.83-11,22.43-.94.83-1.93,1.6-2.96,2.29h110.15c.38-3.55.58-7.17.58-10.87,0-12.79-2.19-24.95-6.57-36.51h-101.14c7.28,6.54,10.94,14.09,10.94,22.65ZM1792.57,757.94c-7.16,0-13.23-.94-18.2-2.82h-102.67c2.16,5.26,4.88,10.42,8.16,15.47,9.6,14.73,24.04,26.31,43.33,34.75,19.28,8.43,45.71,12.64,79.28,12.64,41.2,0,72.61-7.66,94.24-22.98,13.66-9.68,23.82-22.97,30.49-39.88h-114.73c-5.77,1.87-12.4,2.82-19.9,2.82ZM1748.14,602.67c2.05-15.4,6.23-27.13,12.54-35.19,2.73-3.47,5.78-6.47,9.13-9.02h-107.99c-4.46,11.73-7.29,24.48-8.47,38.27l94.79,5.94h0ZM1935.3,721.87l-93.91-5.5c-1.65,9.58-4.49,17.42-8.53,23.55h99.16c1.41-5.69,2.51-11.71,3.29-18.05h0ZM1928.7,537.79c-11.44-17.45-27.42-30.68-47.95-39.7-20.53-9.02-46.4-13.53-77.63-13.53-54.84,0-92.81,10.56-113.92,31.67-8.16,8.16-14.94,17.17-20.36,27.03h263.22c-1.07-1.86-2.18-3.69-3.36-5.48h0Z"/>
</svg>